<svg width="20" height="20" viewBox="0 0 20 20" fill="none" xmlns="http://www.w3.org/2000/svg">
<circle cx="10" cy="10" r="10" fill="#EAFF00"/>
<path d="M9.29986 5.63616V3.86719H10.9104V5.63616H9.29986ZM10.9104 14.5603V16.2632H9.29986V14.5603H10.9104ZM10.2372 14.9431C9.00503 14.9431 8.01933 14.6703 7.28006 14.1246C6.54078 13.5702 6.10954 12.7913 5.98633 11.788H7.94012C8.00173 12.2984 8.24815 12.7033 8.6794 13.0025C9.11064 13.2929 9.6607 13.4381 10.3296 13.4381C10.8752 13.4381 11.2933 13.3413 11.5837 13.1477C11.8829 12.9541 12.0325 12.6945 12.0325 12.3688C12.0325 12.0608 11.9445 11.8144 11.7685 11.6296C11.5925 11.4359 11.2889 11.2819 10.8576 11.1675L9.08864 10.6791C8.18215 10.4238 7.51768 10.0762 7.09524 9.63616C6.6816 9.18732 6.47478 8.62846 6.47478 7.9596C6.47478 7.38754 6.61999 6.89469 6.91042 6.48105C7.20965 6.05861 7.62769 5.73737 8.16455 5.51735C8.7014 5.28853 9.33066 5.17412 10.0523 5.17412C11.1612 5.17412 12.0457 5.43814 12.7058 5.9662C13.3659 6.48545 13.7399 7.17632 13.8279 8.03881H11.8741C11.7861 7.57236 11.5705 7.22912 11.2273 7.0091C10.8928 6.78908 10.4616 6.67907 9.93352 6.67907C9.47588 6.67907 9.11064 6.76708 8.83781 6.9431C8.56499 7.11911 8.42857 7.35674 8.42857 7.65597C8.42857 7.88479 8.50338 8.09601 8.65299 8.28963C8.80261 8.47445 9.11504 8.63286 9.59029 8.76488L11.3593 9.25333C12.2922 9.50855 12.961 9.86059 13.3659 10.3094C13.7795 10.7495 13.9863 11.3083 13.9863 11.986C13.9863 12.9365 13.6563 13.667 12.9962 14.1774C12.3362 14.6879 11.4165 14.9431 10.2372 14.9431Z" fill="#021721"/>
</svg>
