<svg width="18" height="18" viewBox="0 0 18 18" fill="none" xmlns="http://www.w3.org/2000/svg">
<circle cx="9" cy="9" r="9" fill="#EAFF00"/>
<path d="M8.30708 4.52883V2.743H9.93298V4.52883H8.30708ZM9.93298 13.5379V15.2571H8.30708V13.5379H9.93298ZM9.2533 13.9244C8.00944 13.9244 7.01435 13.649 6.26803 13.0982C5.52171 12.5384 5.08636 11.7521 4.96198 10.7393H6.93439C6.99658 11.2546 7.24535 11.6633 7.6807 11.9653C8.11605 12.2585 8.67135 12.4051 9.34659 12.4051C9.89744 12.4051 10.3195 12.3074 10.6127 12.1119C10.9147 11.9165 11.0658 11.6544 11.0658 11.3256C11.0658 11.0147 10.9769 10.7659 10.7992 10.5793C10.6215 10.3839 10.315 10.2284 9.87967 10.1129L8.09384 9.61978C7.17871 9.36212 6.50792 9.01117 6.08145 8.56694C5.66387 8.11382 5.45508 7.54964 5.45508 6.8744C5.45508 6.29689 5.60168 5.79934 5.89487 5.38176C6.19695 4.95529 6.61898 4.631 7.16095 4.40888C7.70291 4.17788 8.33817 4.06238 9.06672 4.06238C10.1862 4.06238 11.0791 4.32892 11.7455 4.862C12.4118 5.3862 12.7894 6.08365 12.8783 6.95436H10.9059C10.817 6.48347 10.5993 6.13696 10.2528 5.91485C9.91521 5.69273 9.47986 5.58167 8.94678 5.58167C8.48477 5.58167 8.11605 5.67052 7.84063 5.84821C7.5652 6.0259 7.42749 6.26579 7.42749 6.56787C7.42749 6.79888 7.50301 7.01211 7.65405 7.20757C7.80509 7.39415 8.1205 7.55408 8.60027 7.68735L10.3861 8.18045C11.3279 8.43811 12.0031 8.7935 12.4118 9.24662C12.8294 9.69086 13.0382 10.255 13.0382 10.9392C13.0382 11.8987 12.705 12.6361 12.0387 13.1515C11.3723 13.6668 10.4439 13.9244 9.2533 13.9244Z" fill="#091B26"/>
</svg>
