<svg width="18" height="18" viewBox="0 0 18 18" fill="none" xmlns="http://www.w3.org/2000/svg">
<path d="M17.2305 9.0195C17.2305 13.5645 13.545 17.25 8.99997 17.25C4.45497 17.25 0.76947 13.5653 0.76947 9.0195C0.76947 4.4745 4.45497 0.789001 8.99997 0.789001C13.545 0.789001 17.2305 4.4745 17.2305 9.0195Z" fill="#F7931A"/>
<path d="M12.699 8.00175C12.8588 6.924 12.039 6.34425 10.9155 5.95725L11.2785 4.49625L10.392 4.27425L10.0313 5.697C9.79651 5.63775 9.55651 5.58375 9.31951 5.52975L9.68026 4.10475L8.79151 3.88275L8.42776 5.3415C8.23821 5.29912 8.04919 5.25437 7.86076 5.20725L6.63376 4.9005L6.39901 5.85C6.39901 5.85 7.05901 6.00225 7.04401 6.00975C7.167 6.02482 7.27923 6.08738 7.35672 6.18408C7.43422 6.28077 7.47084 6.40393 7.45876 6.52725V6.525L7.04401 8.19C7.07951 8.199 7.11201 8.209 7.14151 8.22L7.13626 8.2185L7.04401 8.196L6.46126 10.5158C6.4485 10.5567 6.42771 10.5946 6.40012 10.6274C6.37253 10.6602 6.33868 10.6871 6.30056 10.7067C6.26244 10.7262 6.2208 10.738 6.17808 10.7412C6.13536 10.7445 6.09242 10.7393 6.05176 10.7258L6.05401 10.7265L5.40676 10.5668L4.96576 11.58L6.12376 11.8658L6.75751 12.0308L6.38926 13.5083L7.27801 13.7295L7.64176 12.2685C7.88326 12.333 8.11951 12.394 8.35051 12.4515L7.98676 13.9073L8.87626 14.1293L9.24226 12.6547C10.7603 12.9412 11.9003 12.825 12.3795 11.454C12.7658 10.3508 12.3615 9.714 11.562 9.2985C12.1448 9.17475 12.5805 8.79075 12.699 8.0025M10.665 10.8503C10.392 11.9565 8.53351 11.3663 7.93051 11.2088L8.41801 9.26025C9.02101 9.402 10.9538 9.70125 10.665 10.8503ZM10.941 7.98675C10.683 8.99175 9.13651 8.4795 8.64151 8.35575L9.08476 6.582C9.58501 6.70575 11.2013 6.9405 10.941 7.98675Z" fill="white"/>
</svg>
