<svg width="18" height="18" viewBox="0 0 18 18" fill="none" xmlns="http://www.w3.org/2000/svg">
<circle cx="9" cy="9" r="9" fill="#F7931A"/>
<path d="M9.88251 14.83C9.10518 14.83 8.39087 14.6881 7.73959 14.4045C7.09881 14.1104 6.54207 13.7007 6.06937 13.1755C5.60717 12.6503 5.24476 12.0305 4.98215 11.3162C4.73004 10.5914 4.60398 9.80354 4.60398 8.95267C4.60398 8.1018 4.73004 7.32446 4.98215 6.62066C5.23426 5.91686 5.59141 5.30759 6.05361 4.79287C6.52631 4.26765 7.08305 3.86847 7.72383 3.59536C8.37511 3.31173 9.09467 3.16992 9.88251 3.16992C10.6809 3.16992 11.3952 3.30648 12.0254 3.5796C12.6557 3.84221 13.1809 4.22038 13.6011 4.71409C14.0318 5.1973 14.3312 5.77505 14.4993 6.44734H12.0097C11.8626 5.98514 11.6105 5.63849 11.2534 5.40739C10.8962 5.17629 10.4287 5.06074 9.851 5.06074C9.29426 5.06074 8.8058 5.21831 8.38562 5.53344C7.96543 5.84858 7.63979 6.29502 7.40869 6.87277C7.17759 7.45052 7.06204 8.13857 7.06204 8.93691C7.06204 9.74576 7.17759 10.4548 7.40869 11.0641C7.6503 11.6628 7.98119 12.125 8.40137 12.4507C8.83206 12.7763 9.32577 12.9391 9.88251 12.9391C10.4393 12.9391 10.8857 12.8288 11.2218 12.6082C11.5685 12.3771 11.8206 12.0305 11.9782 11.5683H14.4993C14.3207 12.2406 14.016 12.8236 13.5854 13.3173C13.1547 13.8005 12.6242 14.1734 11.9939 14.436C11.3742 14.6986 10.6704 14.83 9.88251 14.83ZM3.50101 8.65329L3.75312 7.10912H11.3321L11.08 8.65329H3.50101ZM3.50101 10.8592L3.75312 9.31507H10.954L10.7019 10.8592H3.50101Z" fill="white"/>
</svg>
