<svg width="116" height="103" viewBox="0 0 116 103" fill="none" xmlns="http://www.w3.org/2000/svg">
<path d="M78.2765 24.8069H36.8444L28.2756 48.4092H57.4487H86.6327L78.2983 24.7905L78.2765 24.8069Z" fill="url(#paint0_linear_744_94589)"/>
<path d="M-0.477783 30.9773L57.4268 102.929L28.2756 48.4092L-0.477783 30.9773Z" fill="url(#paint1_linear_744_94589)"/>
<path d="M57.585 102.733L115.522 30.9773L86.6327 48.4092L57.585 102.733Z" fill="url(#paint2_linear_744_94589)"/>
<path d="M86.6327 48.4092H57.4487H28.2756L57.4269 102.929L57.4541 102.972L57.585 102.733L86.6327 48.4092Z" fill="url(#paint3_linear_744_94589)"/>
<g style="mix-blend-mode:multiply" opacity="0.5">
<path d="M57.585 102.733L115.522 30.9773L86.6327 48.4092L57.585 102.733Z" fill="#090041"/>
</g>
<path style="mix-blend-mode:color-dodge" opacity="0.3" d="M57.585 102.733L115.522 30.9773L105.008 37.6873L57.585 102.733Z" fill="url(#paint4_radial_744_94589)"/>
<path style="mix-blend-mode:color-dodge" opacity="0.3" d="M75.8998 48.0604H57.4486H39.0083L57.4377 102.575L57.454 102.624L57.5358 102.378L75.8998 48.0604Z" fill="url(#paint5_linear_744_94589)"/>
<path d="M36.8443 24.8068L16.131 12.4006L-0.477783 30.9772L28.2756 48.4091L36.8443 24.8068Z" fill="url(#paint6_linear_744_94589)"/>
<path d="M86.6325 48.4092L115.522 30.9773L98.9787 12.4116L78.2981 24.7906L86.6325 48.4092Z" fill="url(#paint7_linear_744_94589)"/>
<path style="mix-blend-mode:color-dodge" opacity="0.6" d="M36.8443 24.8068L16.131 12.4006L-0.477783 30.9772L28.2756 48.4091L36.8443 24.8068Z" fill="url(#paint8_linear_744_94589)"/>
<path style="mix-blend-mode:color-dodge" opacity="0.3" d="M86.6325 48.4092L115.522 30.9773L98.9787 12.4116L78.2981 24.7906L86.6325 48.4092Z" fill="url(#paint9_linear_744_94589)"/>
<path style="mix-blend-mode:color-dodge" opacity="0.6" d="M105.007 37.6873L115.522 30.9773L98.9788 12.4116L105.007 37.6873Z" fill="url(#paint10_radial_744_94589)"/>
<path d="M69.5497 0H36.8444L16.1311 12.4007L36.8444 24.8015H78.2765L98.9789 12.4062C98.9953 12.3953 98.9462 12.368 98.9462 12.368L78.2765 0H69.5497Z" fill="url(#paint11_linear_744_94589)"/>
<path style="mix-blend-mode:color-dodge" opacity="0.4" d="M73.8013 13.7581H29.8837L2.06787 28.6335L29.8837 43.5035H85.5207L85.548 43.4871L113.32 28.6389L113.277 28.5953L85.5262 13.7581H73.8068H73.8013Z" fill="url(#paint12_linear_744_94589)"/>
<path style="mix-blend-mode:color-dodge" opacity="0.4" d="M66.5405 54.6341H42.0007L26.4548 64.5492L42.0007 74.4644H73.087L88.622 64.5547C88.6329 64.5492 88.5948 64.522 88.5948 64.522L73.087 54.6287H66.5405V54.6341Z" fill="url(#paint13_linear_744_94589)"/>
<g style="mix-blend-mode:multiply" opacity="0.4">
<path d="M86.2562 48.4092H56.8869H27.5339L57.4047 103.114L86.2562 48.4092Z" fill="#0D0041"/>
</g>
<path style="mix-blend-mode:color-dodge" opacity="0.6" d="M85.5697 48.4092C83.2804 50.0662 51.3873 91.2694 51.2129 91.76L57.4105 103.109L86.2565 48.4092H85.5697Z" fill="url(#paint14_linear_744_94589)"/>
<g style="mix-blend-mode:multiply" opacity="0.3">
<path d="M78.2765 24.8069H36.8444L28.2756 48.4092H57.4487H86.6327L78.2983 24.7905L78.2765 24.8069Z" fill="#0F0072"/>
</g>
<path d="M85.875 49.2268L28.5591 48.6217L86.093 47.6733L78.5218 24.6324L87.6356 47.2699L115.484 30.9391L87.8537 48.9924L57.6122 102.782L85.875 49.2268Z" fill="#BA9CFF"/>
<path d="M29.2842 49.2268L86.6001 48.6217L29.0662 47.6733L36.6374 24.6324L27.5236 47.2699L-0.324951 30.9391L27.3001 48.9924L57.547 102.782L29.2842 49.2268Z" fill="white"/>
<path d="M78.985 24.4853L98.9025 12.4607L77.4043 23.5805L36.8225 24.4526L77.5841 25.1612L83.4493 39.5406L78.985 24.4853Z" fill="#5339FF"/>
<path style="mix-blend-mode:color-dodge" opacity="0.6" d="M66.9385 31.8494C71.9042 35.7359 76.7446 39.7695 81.4324 43.9612C83.0349 45.3948 84.8392 46.8121 86.5889 48.3001L78.2927 24.7905L58.1626 24.8014C61.1061 27.1453 64.0059 29.5491 66.9385 31.844V31.8494Z" fill="url(#paint15_linear_744_94589)"/>
<path style="mix-blend-mode:color-dodge" opacity="0.2" d="M56.0586 47.7388L29.4202 52.8953L57.5358 77.1135L84.1742 53.0425L56.0586 47.7388Z" fill="url(#paint16_linear_744_94589)"/>
<path style="mix-blend-mode:color-dodge" opacity="0.5" d="M32.0802 64.1622C32.0693 66.2444 30.2924 67.9287 28.1066 67.9178C25.9208 67.9069 24.1547 66.2117 24.1656 64.1295C24.1765 62.0472 25.9535 60.3629 28.1393 60.3738C30.3251 60.3847 32.0911 62.08 32.0802 64.1622Z" fill="url(#paint17_radial_744_94589)"/>
<g style="mix-blend-mode:screen">
<path d="M30.7231 45.5692L36.1304 42.375L31.5953 46.4523C31.0066 47.3953 30.8648 48.529 31.1973 49.5756L34.5769 54.5686L30.1235 50.2352C29.2241 49.7773 28.1776 49.6574 27.191 49.8972L21.7837 53.0914L26.3188 49.0142C26.9075 48.0712 27.0492 46.9374 26.7167 45.8908L23.3372 40.8978L27.7906 45.2313C28.6899 45.6891 29.7365 45.8091 30.7231 45.5692Z" fill="white"/>
</g>
<g style="mix-blend-mode:screen">
<path d="M78.865 22.4902L83.689 24.7959L78.5815 23.4877C77.6058 23.5041 76.6846 23.9074 76.036 24.6051L73.7575 29.1512L75.0603 24.1582C75.0058 23.3351 74.6351 22.5611 74.0137 21.9887L69.1897 19.683L74.2972 20.9912C75.2729 20.9749 76.1941 20.5715 76.8427 19.8738L79.1212 15.3278L77.8184 20.3208C77.8729 21.1438 78.2436 21.9179 78.865 22.4902Z" fill="white"/>
</g>
<path style="mix-blend-mode:color-dodge" d="M28.3739 59.8397C35.0661 59.8397 40.4912 54.6684 40.4912 48.2893C40.4912 41.9102 35.0661 36.7389 28.3739 36.7389C21.6817 36.7389 16.2566 41.9102 16.2566 48.2893C16.2566 54.6684 21.6817 59.8397 28.3739 59.8397Z" fill="url(#paint18_radial_744_94589)"/>
<path style="mix-blend-mode:color-dodge" d="M81.6013 20.9149C84.8227 28.606 84.7791 35.9538 81.5086 37.3274C78.2381 38.6956 72.978 33.5718 69.762 25.8806C66.5405 18.1894 66.5841 10.8416 69.8546 9.46803C73.1252 8.09986 78.3852 13.2237 81.6013 20.9149Z" fill="url(#paint19_radial_744_94589)"/>
<g style="mix-blend-mode:color" opacity="0.3">
<path d="M88.4859 64.4566L115.517 30.9773L98.9734 12.4116L98.9407 12.3735L78.2764 0H36.8443L16.131 12.4007L-0.477783 30.9773L26.5095 64.5165L26.455 64.5492L26.6185 64.6528L57.0562 102.476L57.405 103.109L57.6503 102.645L57.7321 102.542L57.6067 102.776L57.7593 102.509L88.1806 64.8327L88.6222 64.5492L88.5949 64.5165L88.4859 64.4457V64.4566Z" fill="#2908FF"/>
</g>
<defs>
<linearGradient id="paint0_linear_744_94589" x1="28.2811" y1="36.6026" x2="86.6327" y2="36.6026" gradientUnits="userSpaceOnUse">
<stop stop-color="#5339FF"/>
<stop offset="0.15" stop-color="#4A32EF"/>
<stop offset="0.45" stop-color="#3923C8"/>
<stop offset="0.86" stop-color="#190989"/>
<stop offset="1" stop-color="#0F0072"/>
</linearGradient>
<linearGradient id="paint1_linear_744_94589" x1="-0.477783" y1="66.953" x2="57.4268" y2="66.953" gradientUnits="userSpaceOnUse">
<stop stop-color="#0F0072"/>
<stop offset="0.14" stop-color="#190989"/>
<stop offset="0.55" stop-color="#3923C8"/>
<stop offset="0.85" stop-color="#4A32EF"/>
<stop offset="1" stop-color="#5339FF"/>
</linearGradient>
<linearGradient id="paint2_linear_744_94589" x1="106.174" y1="29.0586" x2="67.1785" y2="104.188" gradientUnits="userSpaceOnUse">
<stop stop-color="#0F0072"/>
<stop offset="0.14" stop-color="#190989"/>
<stop offset="0.55" stop-color="#3923C8"/>
<stop offset="0.85" stop-color="#4A32EF"/>
<stop offset="1" stop-color="#5339FF"/>
</linearGradient>
<linearGradient id="paint3_linear_744_94589" x1="28.2811" y1="75.6962" x2="86.6327" y2="75.6962" gradientUnits="userSpaceOnUse">
<stop stop-color="#0F0072"/>
<stop offset="0.14" stop-color="#190989"/>
<stop offset="0.55" stop-color="#3923C8"/>
<stop offset="0.85" stop-color="#4A32EF"/>
<stop offset="1" stop-color="#5339FF"/>
</linearGradient>
<radialGradient id="paint4_radial_744_94589" cx="0" cy="0" r="1" gradientUnits="userSpaceOnUse" gradientTransform="translate(99.3223 63.4596) scale(42.3424 40.2253)">
<stop stop-color="white"/>
<stop offset="0.26" stop-color="#B0B0B0"/>
<stop offset="0.53" stop-color="#686868"/>
<stop offset="0.75" stop-color="#343434"/>
<stop offset="0.91" stop-color="#141414"/>
<stop offset="1" stop-color="#080808"/>
</radialGradient>
<linearGradient id="paint5_linear_744_94589" x1="39.0138" y1="75.342" x2="75.8998" y2="75.342" gradientUnits="userSpaceOnUse">
<stop stop-color="#080808"/>
<stop offset="0.04" stop-color="#130831"/>
<stop offset="0.11" stop-color="#200866"/>
<stop offset="0.17" stop-color="#2B0895"/>
<stop offset="0.24" stop-color="#3508BB"/>
<stop offset="0.3" stop-color="#3D08D9"/>
<stop offset="0.36" stop-color="#4208EE"/>
<stop offset="0.42" stop-color="#4508FA"/>
<stop offset="0.48" stop-color="#4608FF"/>
<stop offset="0.53" stop-color="#541AFF"/>
<stop offset="0.65" stop-color="#7749FF"/>
<stop offset="0.8" stop-color="#AF94FF"/>
<stop offset="0.99" stop-color="#FCFBFF"/>
<stop offset="1" stop-color="white"/>
</linearGradient>
<linearGradient id="paint6_linear_744_94589" x1="7.76939" y1="22.0214" x2="34.8112" y2="37.7308" gradientUnits="userSpaceOnUse">
<stop stop-color="#1C00D5"/>
<stop offset="0.21" stop-color="#3F26DF"/>
<stop offset="0.58" stop-color="#7765F0"/>
<stop offset="0.86" stop-color="#9A8CFA"/>
<stop offset="1" stop-color="#A99CFF"/>
</linearGradient>
<linearGradient id="paint7_linear_744_94589" x1="106.583" y1="6.92805" x2="86.1583" y2="51.1891" gradientUnits="userSpaceOnUse">
<stop stop-color="#0F0072"/>
<stop offset="0.14" stop-color="#190989"/>
<stop offset="0.55" stop-color="#3923C8"/>
<stop offset="0.85" stop-color="#4A32EF"/>
<stop offset="1" stop-color="#5339FF"/>
</linearGradient>
<linearGradient id="paint8_linear_744_94589" x1="7.76939" y1="22.0214" x2="34.8112" y2="37.7308" gradientUnits="userSpaceOnUse">
<stop stop-color="#080808"/>
<stop offset="0.04" stop-color="#081031"/>
<stop offset="0.11" stop-color="#081B66"/>
<stop offset="0.17" stop-color="#082495"/>
<stop offset="0.24" stop-color="#082CBB"/>
<stop offset="0.3" stop-color="#0831D9"/>
<stop offset="0.36" stop-color="#0836EE"/>
<stop offset="0.42" stop-color="#0838FA"/>
<stop offset="0.48" stop-color="#0839FF"/>
<stop offset="0.53" stop-color="#1A47FF"/>
<stop offset="0.65" stop-color="#496DFF"/>
<stop offset="0.8" stop-color="#94A9FF"/>
<stop offset="0.99" stop-color="#FBFCFF"/>
<stop offset="1" stop-color="white"/>
</linearGradient>
<linearGradient id="paint9_linear_744_94589" x1="78.2981" y1="30.4104" x2="115.522" y2="30.4104" gradientUnits="userSpaceOnUse">
<stop stop-color="#080808"/>
<stop offset="0.04" stop-color="#08310E"/>
<stop offset="0.11" stop-color="#086615"/>
<stop offset="0.17" stop-color="#08951B"/>
<stop offset="0.24" stop-color="#08BB20"/>
<stop offset="0.3" stop-color="#08D925"/>
<stop offset="0.36" stop-color="#08EE27"/>
<stop offset="0.42" stop-color="#08FA29"/>
<stop offset="0.48" stop-color="#08FF29"/>
<stop offset="0.53" stop-color="#1AFF39"/>
<stop offset="0.65" stop-color="#49FF62"/>
<stop offset="0.8" stop-color="#94FFA2"/>
<stop offset="0.99" stop-color="#FBFFFC"/>
<stop offset="1" stop-color="white"/>
</linearGradient>
<radialGradient id="paint10_radial_744_94589" cx="0" cy="0" r="1" gradientUnits="userSpaceOnUse" gradientTransform="translate(108.916 23.1152) scale(14.4176 13.6967)">
<stop stop-color="white"/>
<stop offset="0.26" stop-color="#B0B0B0"/>
<stop offset="0.53" stop-color="#686868"/>
<stop offset="0.75" stop-color="#343434"/>
<stop offset="0.91" stop-color="#141414"/>
<stop offset="1" stop-color="#080808"/>
</radialGradient>
<linearGradient id="paint11_linear_744_94589" x1="19.2926" y1="-25.5973" x2="69.4897" y2="24.2564" gradientUnits="userSpaceOnUse">
<stop stop-color="white"/>
<stop offset="0.2" stop-color="#DAD4FF"/>
<stop offset="0.75" stop-color="#7A65FF"/>
<stop offset="1" stop-color="#5339FF"/>
</linearGradient>
<linearGradient id="paint12_linear_744_94589" x1="2.06787" y1="28.6335" x2="113.32" y2="28.6335" gradientUnits="userSpaceOnUse">
<stop stop-color="#080808"/>
<stop offset="0.04" stop-color="#080E31"/>
<stop offset="0.11" stop-color="#081666"/>
<stop offset="0.17" stop-color="#081D95"/>
<stop offset="0.24" stop-color="#0823BB"/>
<stop offset="0.3" stop-color="#0826D9"/>
<stop offset="0.36" stop-color="#082AEE"/>
<stop offset="0.42" stop-color="#082CFA"/>
<stop offset="0.48" stop-color="#082DFF"/>
<stop offset="0.53" stop-color="#1A3CFF"/>
<stop offset="0.65" stop-color="#4964FF"/>
<stop offset="0.8" stop-color="#94A4FF"/>
<stop offset="0.99" stop-color="#FBFCFF"/>
<stop offset="1" stop-color="white"/>
</linearGradient>
<linearGradient id="paint13_linear_744_94589" x1="26.4603" y1="64.5492" x2="88.6275" y2="64.5492" gradientUnits="userSpaceOnUse">
<stop stop-color="#FDFBFF"/>
<stop offset="0.2" stop-color="#C694FF"/>
<stop offset="0.35" stop-color="#9E49FF"/>
<stop offset="0.47" stop-color="#851AFF"/>
<stop offset="0.52" stop-color="#7C08FF"/>
<stop offset="0.58" stop-color="#7908FA"/>
<stop offset="0.64" stop-color="#7408EE"/>
<stop offset="0.7" stop-color="#6B08D9"/>
<stop offset="0.76" stop-color="#5C08BB"/>
<stop offset="0.83" stop-color="#4A0895"/>
<stop offset="0.89" stop-color="#340866"/>
<stop offset="0.96" stop-color="#1C0831"/>
<stop offset="1" stop-color="#080808"/>
</linearGradient>
<linearGradient id="paint14_linear_744_94589" x1="62.4962" y1="69.5368" x2="73.8504" y2="77.108" gradientUnits="userSpaceOnUse">
<stop stop-color="#080808"/>
<stop offset="0.14" stop-color="#09080B"/>
<stop offset="0.27" stop-color="#0A0816"/>
<stop offset="0.4" stop-color="#0D0829"/>
<stop offset="0.52" stop-color="#100843"/>
<stop offset="0.64" stop-color="#150864"/>
<stop offset="0.75" stop-color="#1A088D"/>
<stop offset="0.87" stop-color="#2108BE"/>
<stop offset="0.98" stop-color="#2808F5"/>
<stop offset="1" stop-color="#2908FF"/>
</linearGradient>
<linearGradient id="paint15_linear_744_94589" x1="82.975" y1="32.9341" x2="71.4464" y2="36.8751" gradientUnits="userSpaceOnUse">
<stop stop-color="#2908FF"/>
<stop offset="0.02" stop-color="#2808F5"/>
<stop offset="0.13" stop-color="#2108BE"/>
<stop offset="0.25" stop-color="#1A088D"/>
<stop offset="0.36" stop-color="#150864"/>
<stop offset="0.48" stop-color="#100843"/>
<stop offset="0.6" stop-color="#0D0829"/>
<stop offset="0.73" stop-color="#0A0816"/>
<stop offset="0.86" stop-color="#09080B"/>
<stop offset="1" stop-color="#080808"/>
</linearGradient>
<linearGradient id="paint16_linear_744_94589" x1="56.7999" y1="47.7442" x2="56.7999" y2="77.1135" gradientUnits="userSpaceOnUse">
<stop stop-color="#2E2E2E"/>
<stop offset="0.04" stop-color="#191373"/>
<stop offset="0.11" stop-color="#160EAD"/>
<stop offset="0.409897" stop-color="#E2E1FF"/>
<stop offset="0.99" stop-color="white"/>
<stop offset="1" stop-color="white"/>
</linearGradient>
<radialGradient id="paint17_radial_744_94589" cx="0" cy="0" r="1" gradientUnits="userSpaceOnUse" gradientTransform="translate(28.1584 63.8888) rotate(0.23) scale(3.95733 3.75946)">
<stop stop-color="white"/>
<stop offset="0.02" stop-color="#EDEDED"/>
<stop offset="0.08" stop-color="#C0C0C0"/>
<stop offset="0.14" stop-color="#979797"/>
<stop offset="0.21" stop-color="#737373"/>
<stop offset="0.29" stop-color="#565656"/>
<stop offset="0.37" stop-color="#3E3E3E"/>
<stop offset="0.46" stop-color="#2B2B2B"/>
<stop offset="0.57" stop-color="#1E1E1E"/>
<stop offset="0.71" stop-color="#171717"/>
<stop offset="1" stop-color="#151515" stop-opacity="0"/>
</radialGradient>
<radialGradient id="paint18_radial_744_94589" cx="0" cy="0" r="1" gradientUnits="userSpaceOnUse" gradientTransform="translate(28.402 48.0854) rotate(0.23) scale(12.1173 11.5114)">
<stop stop-color="white"/>
<stop offset="0.03" stop-color="#E0E0E0"/>
<stop offset="0.09" stop-color="#B3B3B3"/>
<stop offset="0.15" stop-color="#8A8A8A"/>
<stop offset="0.22" stop-color="#666666"/>
<stop offset="0.3" stop-color="#494949"/>
<stop offset="0.38" stop-color="#313131"/>
<stop offset="0.47" stop-color="#1E1E1E"/>
<stop offset="0.57" stop-color="#111111"/>
<stop offset="0.71" stop-color="#0A0A0A"/>
<stop offset="1" stop-color="#080808" stop-opacity="0"/>
</radialGradient>
<radialGradient id="paint19_radial_744_94589" cx="0" cy="0" r="1" gradientUnits="userSpaceOnUse" gradientTransform="translate(75.5454 23.2183) rotate(-22.73) scale(6.42216 15.1466)">
<stop stop-color="white"/>
<stop offset="0.03" stop-color="#E0E0E0"/>
<stop offset="0.09" stop-color="#B3B3B3"/>
<stop offset="0.15" stop-color="#8A8A8A"/>
<stop offset="0.22" stop-color="#666666"/>
<stop offset="0.3" stop-color="#494949"/>
<stop offset="0.38" stop-color="#313131"/>
<stop offset="0.47" stop-color="#1E1E1E"/>
<stop offset="0.57" stop-color="#111111"/>
<stop offset="0.71" stop-color="#0A0A0A"/>
<stop offset="1" stop-color="#080808" stop-opacity="0"/>
</radialGradient>
</defs>
</svg>
